HIERARCHY
ROOT Hips
{
 OFFSET 0.000000 0.000000 0.000000
 CHANNELS 6 Xposition Yposition Zposition Yrotation Xrotation Zrotation
 JOINT Chest
 {
  OFFSET 0.000000 9.585900 0.002600
  CHANNELS 3 Yrotation Xrotation Zrotation
  JOINT Chest2
  {
   OFFSET 0.000000 9.601200 -0.005300
   CHANNELS 3 Yrotation Xrotation Zrotation
   JOINT Chest3
   {
    OFFSET 0.000000 9.561800 0.000000
    CHANNELS 3 Yrotation Xrotation Zrotation
    JOINT Chest4
    {
     OFFSET 0.000000 9.552100 0.000000
     CHANNELS 3 Yrotation Xrotation Zrotation
     JOINT Neck
     {
      OFFSET 0.000000 14.453000 0.000000
      CHANNELS 3 Yrotation Xrotation Zrotation
      JOINT Head
      {
       OFFSET 0.000000 8.936500 -0.011300
       CHANNELS 3 Yrotation Xrotation Zrotation
       End Site
       {
        OFFSET 0.000000 17.073600 -0.006000
       }
      }
     }
     JOINT RightCollar
     {
      OFFSET -2.921100 9.558500 0.000000
      CHANNELS 3 Yrotation Xrotation Zrotation
      JOINT RightShoulder
      {
       OFFSET -13.519700 0.000000 0.000000
       CHANNELS 3 Yrotation Xrotation Zrotation
       JOINT RightElbow
       {
        OFFSET 0.000000 -29.696600 0.000000
        CHANNELS 3 Yrotation Xrotation Zrotation
        JOINT RightWrist
        {
         OFFSET 0.000000 -24.004700 0.000000
         CHANNELS 3 Yrotation Xrotation Zrotation
         End Site
         {
          OFFSET 0.000000 -17.728500 0.000000
         }
        }
       }
      }
     }
     JOINT LeftCollar
     {
      OFFSET 2.921100 9.558500 0.000000
      CHANNELS 3 Yrotation Xrotation Zrotation
      JOINT LeftShoulder
      {
       OFFSET 13.519700 0.000000 0.000000
       CHANNELS 3 Yrotation Xrotation Zrotation
       JOINT LeftElbow
       {
        OFFSET 0.000000 -29.696600 0.000000
        CHANNELS 3 Yrotation Xrotation Zrotation
        JOINT LeftWrist
        {
         OFFSET 0.000000 -24.004700 0.000000
         CHANNELS 3 Yrotation Xrotation Zrotation
         End Site
         {
          OFFSET 0.000000 -17.728500 0.000000
         }
        }
       }
      }
     }
    }
   }
  }
 }
 JOINT RightHip
 {
  OFFSET -7.771700 -0.012900 -0.001300
  CHANNELS 3 Yrotation Xrotation Zrotation
  JOINT RightKnee
  {
   OFFSET 0.000000 -40.869800 0.001200
   CHANNELS 3 Yrotation Xrotation Zrotation
   JOINT RightAnkle
   {
    OFFSET 0.000000 -39.717900 0.002100
    CHANNELS 3 Yrotation Xrotation Zrotation
    JOINT RightToe
    {
     OFFSET 0.000000 -4.965400 11.033500
     CHANNELS 3 Yrotation Xrotation Zrotation
     End Site
     {
      OFFSET 0.000000 -1.423100 5.872300
     }
    }
   }
  }
 }
 JOINT LeftHip
 {
  OFFSET 7.771700 -0.012900 -0.001300
  CHANNELS 3 Yrotation Xrotation Zrotation
  JOINT LeftKnee
  {
   OFFSET 0.000000 -40.869800 0.001200
   CHANNELS 3 Yrotation Xrotation Zrotation
   JOINT LeftAnkle
   {
    OFFSET 0.000000 -39.717900 0.002100
    CHANNELS 3 Yrotation Xrotation Zrotation
    JOINT LeftToe
    {
     OFFSET 0.000000 -4.965400 11.033500
     CHANNELS 3 Yrotation Xrotation Zrotation
     End Site
     {
      OFFSET 0.000000 -1.423100 5.872300
     }
    }
   }
  }
 }
}
MOTION
Frames: 8
Frame Time: 0.008333
-82.978083 46.598461 -13.506376 172.026775 -31.422612 -1.902110 1.584039 18.266411 2.209324 0.051544 2.095546 0.216120 0.031042 3.467566 0.366968 0.440507 16.016527 1.743278 -0.757033 16.915451 -1.353355 -0.935470 -4.383521 -2.243707 0.033811 0.277748 -0.566821 -2.538938 -5.336502 -17.274755 -67.788242 -68.743106 108.994412 -1.062227 -5.892113 -25.061734 -0.364413 -0.298648 0.753939 -0.243749 -3.755955 13.271912 71.876387 -72.201424 -106.801909 1.417186 2.608195 14.565247 -5.005828 -55.068220 -3.476451 -162.218225 78.586565 -152.245977 -7.871718 -16.706354 -6.537029 -0.298882 -0.709788 -0.083704 0.315692 -57.575801 12.734550 -120.585274 82.671164 -124.152849 7.229201 -7.492411 5.425003 0.434734 0.343271 0.122717
-82.982842 46.597664 -13.512426 172.016937 -31.413800 -1.903510 1.507856 18.263091 2.199268 0.044843 2.094827 0.217356 0.019768 3.466499 0.368882 0.388619 16.014652 1.746716 -0.728860 16.920398 -1.325343 -0.892935 -4.374138 -2.201587 0.024822 0.321360 -0.593740 -2.571196 -5.357459 -17.314469 -67.752716 -68.737643 108.981699 -1.055948 -5.895217 -25.055334 -0.369868 -0.291152 0.740431 -0.293423 -3.774578 13.251898 71.883628 -72.233357 -106.803700 1.401277 2.610761 14.562999 -4.970465 -55.074272 -3.482813 -162.322830 78.617413 -152.336910 -7.882548 -16.659256 -6.543119 -0.245174 -0.682049 -0.090799 0.310193 -57.587350 12.720468 -120.867833 82.685040 -124.406357 7.243089 -7.503887 5.428861 0.416202 0.335539 0.090138
-82.986915 46.597756 -13.519335 172.041420 -31.414282 -1.925590 1.406591 18.268334 2.193750 0.016107 2.094537 0.221579 0.030910 3.465913 0.367193 0.338715 16.013679 1.750881 -0.702086 16.924456 -1.296957 -0.853075 -4.366502 -2.158359 0.017371 0.364659 -0.622031 -2.607670 -5.372407 -17.351251 -67.722287 -68.726986 108.971847 -1.048627 -5.900185 -25.046553 -0.376234 -0.281949 0.727108 -0.349075 -3.797598 13.234111 71.887523 -72.266110 -106.797464 1.387461 2.619916 14.556572 -4.955592 -55.070989 -3.500014 -162.379463 78.638200 -152.375153 -7.856559 -16.570278 -6.593481 -0.245954 -0.700630 -0.061017 0.271448 -57.587269 12.728199 -121.020502 82.688511 -124.545952 7.263769 -7.514841 5.425411 0.424569 0.329375 0.097592
-82.993304 46.598320 -13.526991 172.108501 -31.419204 -1.957135 1.266197 18.278726 2.174183 0.010026 2.094391 0.222964 0.020988 3.465637 0.369395 0.292777 16.013224 1.755972 -0.675942 16.927439 -1.267544 -0.814757 -4.360860 -2.112933 0.014597 0.406226 -0.651498 -2.649350 -5.378271 -17.380083 -67.701003 -68.717449 108.966653 -1.043388 -5.904094 -25.038844 -0.384891 -0.271261 0.714830 -0.406515 -3.823377 13.218384 71.897923 -72.301145 -106.795269 1.375088 2.634564 14.548636 -4.981009 -55.066035 -3.521868 -162.419767 78.664433 -152.414183 -7.862767 -16.469707 -6.656924 -0.231981 -0.718376 -0.013566 0.212936 -57.581041 12.717541 -121.164434 82.689729 -124.678470 7.282812 -7.522299 5.425818 0.426716 0.319644 0.098410
-82.999837 46.598381 -13.533356 172.105792 -31.419524 -1.955865 1.186632 18.281974 2.157064 0.004435 2.094141 0.224598 0.011800 3.465113 0.371900 0.250555 16.012153 1.763170 -0.650329 16.930454 -1.237571 -0.777721 -4.355100 -2.066231 0.013209 0.449567 -0.684017 -2.694370 -5.378691 -17.397812 -67.680964 -68.714148 108.966179 -1.040063 -5.906253 -25.038354 -0.395029 -0.261538 0.703257 -0.465034 -3.847323 13.203774 71.917864 -72.336187 -106.801191 1.361527 2.648347 14.542126 -4.952286 -55.061366 -3.536360 -162.419682 78.692159 -152.412869 -7.865935 -16.391693 -6.674532 -0.215541 -0.704866 -0.016947 0.204253 -57.580152 12.706520 -121.383648 82.695996 -124.879705 7.286514 -7.538298 5.408020 0.396216 0.313466 0.106419
-83.001663 46.596261 -13.534714 171.993447 -31.395456 -1.933840 1.213131 18.258660 2.178069 -0.000897 2.093800 0.226298 0.002981 3.464474 0.374623 0.210367 16.010645 1.771552 -0.625587 16.933076 -1.207130 -0.742541 -4.350172 -2.018364 0.010086 0.493839 -0.719042 -2.737798 -5.375344 -17.407524 -67.658633 -68.714384 108.969010 -1.034537 -5.910763 -25.044640 -0.404490 -0.256276 0.694117 -0.523666 -3.870008 13.187206 71.936031 -72.371759 -106.806065 1.348185 2.657729 14.536749 -4.861204 -55.083938 -3.496309 -162.225670 78.724433 -152.224319 -7.791355 -16.268849 -6.670067 -0.257925 -0.692272 -0.048370 0.227126 -57.605646 12.766891 -121.627043 82.690895 -125.102103 7.282587 -7.572588 5.373918 0.414272 0.315279 0.134778
-83.007097 46.596058 -13.539768 172.002464 -31.391060 -1.954929 1.134534 18.261074 2.181025 0.031298 2.091204 0.221775 -0.022077 3.465182 0.379998 0.153538 16.011628 1.785753 -0.602174 16.934100 -1.175078 -0.710329 -4.348192 -1.967159 0.062017 0.514969 -0.767893 -2.834978 -5.346584 -17.398272 -67.636829 -68.715073 108.969199 -1.028407 -5.917325 -25.050515 -0.411120 -0.256584 0.687115 -0.583380 -3.893635 13.169979 71.950539 -72.407469 -106.809610 1.335900 2.664464 14.533054 -4.837733 -55.087007 -3.506064 -162.114293 78.735376 -152.099485 -7.759251 -16.152310 -6.718803 -0.274691 -0.739788 -0.010233 0.162182 -57.606543 12.815484 -121.705281 82.686705 -125.188799 7.303810 -7.585982 5.370943 0.398998 0.314934 0.128911
-83.015049 46.598347 -13.549407 172.088644 -31.414687 -2.000770 1.025560 18.290976 2.176334 -0.024181 2.094942 0.232383 0.046293 3.460327 0.364722 0.064832 16.016320 1.812239 -0.580492 16.933785 -1.141789 -0.681705 -4.348613 -1.913032 0.108126 0.534591 -0.816785 -2.924750 -5.316861 -17.384099 -67.613118 -68.714774 108.961050 -1.027908 -5.921520 -25.055488 -0.416477 -0.260795 0.679325 -0.644645 -3.917057 13.156674 71.974622 -72.440213 -106.826345 1.323638 2.671542 14.532880 -4.853929 -55.066383 -3.553051 -162.097257 78.738644 -152.059456 -7.778145 -16.024030 -6.804325 -0.251626 -0.812585 0.067957 0.027007 -57.571001 12.855334 -121.752160 82.685032 -125.262441 7.354893 -7.601635 5.370950 0.370209 0.311442 0.125370
